<svg xmlns="http://www.w3.org/2000/svg" xmlns:xlink="http://www.w3.org/1999/xlink" width="331.76" height="231.071" viewBox="0 0 331.76 231.071"><defs><clipPath id="b"><rect width="331.76" height="231.071"/></clipPath></defs><g id="a" clip-path="url(#b)"><rect width="331.76" height="231.071" fill="#fff"/><rect width="331.76" height="231.071" fill="#fff"/><ellipse cx="94.637" cy="87.065" rx="94.637" ry="87.065" transform="translate(70.943 27.289)" fill="none" stroke="#4375b1" stroke-miterlimit="10" stroke-width="5"/><path d="M142.22,26.522l-23.681.767,3.188,22.155s24.288-6.831,24.288-7.439S142.22,26.522,142.22,26.522Z" fill="#fff"/><rect width="89.126" height="34.951" rx="5.935" transform="translate(17.499 56.154)" fill="#002e6e"/><rect width="62.002" height="34.951" rx="5.935" transform="translate(31.061 125.033)" fill="#002e6e"/><text transform="translate(62.062 65.466)" fill="#fff" font-size="8" font-family="OpenSans, Open Sans"><tspan x="-19.064" y="0">Utilização:</tspan><tspan x="-20.311" y="9.6">prescrição,</tspan><tspan x="-34.301" y="19.2">dispensação e uso</tspan></text><text transform="translate(36.912 145.146)" fill="#fff" font-size="9" font-family="OpenSans, Open Sans"><tspan x="0" y="0">Distribuição</tspan></text><rect width="79.754" height="34.951" rx="5.935" transform="translate(235.48 56.154)" fill="#002e6e"/><rect width="61.301" height="34.951" rx="5.935" transform="translate(244.706 125.033)" fill="#002e6e"/><text transform="translate(247.236 76.266)" fill="#fff" font-size="9" font-family="OpenSans, Open Sans"><tspan x="0" y="0">Programação</tspan></text><text transform="translate(255.203 145.146)" fill="#fff" font-size="9" font-family="OpenSans, Open Sans"><tspan x="0" y="0">Aquisição</tspan></text><rect width="63.612" height="30.408" rx="5.935" transform="translate(133.774 15.596)" fill="#002e6e"/><rect width="77.31" height="93.01" rx="5.935" transform="translate(126.925 63.925)" fill="#002e6e"/><rect width="88.103" height="34.951" rx="5.935" transform="translate(121.529 178.189)" fill="#002e6e"/><text transform="translate(148.391 33.437)" fill="#fff" font-size="9" font-family="OpenSans, Open Sans"><tspan x="0" y="0">Seleção </tspan></text><text transform="translate(130.534 198.301)" fill="#fff" font-size="9" font-family="OpenSans, Open Sans"><tspan x="0" y="0">Armazenamento</tspan></text><text transform="translate(126.925 66.053)" fill="#fff" font-size="9" font-family="OpenSans, Open Sans"><tspan x="6.168" y="10">Gerenciamento</tspan><tspan x="7.605" y="20.8">Financiamento</tspan><tspan x="19.596" y="31.6">Recursos </tspan><tspan x="18.816" y="42.4">humanos</tspan><tspan x="13.5" y="53.2">Sistemas de </tspan><tspan x="14.623" y="64">informação</tspan><tspan x="16.836" y="74.8">Controle e </tspan><tspan x="19.253" y="85.6">avaliação</tspan></text><path d="M129.44,33.437l-19.922-1.142,8.039,16.427Z" fill="#4174b0"/></g></svg>